<svg xmlns="http://www.w3.org/2000/svg" viewBox="0 0 98.75 66.62"><defs><style>.cls-1{fill:none;stroke:#000;stroke-miterlimit:10;}.cls-2{font-size:12px;font-family:MyriadPro-Regular, Myriad Pro;}</style></defs><title>Ресурс 4</title><g id="Слой_2" data-name="Слой 2"><g id="Слой_1-2" data-name="Слой 1"><path class="cls-1" d="M59.58,8C49.38-1.47,36-1.39,30,5c-4.18,4.4-3.72,11.36-3.36,15.57a35.11,35.11,0,0,0,3,11.43"/><path class="cls-1" d="M65,8.42C75.23-1.07,88.65-1,94.67,5.36,98.84,9.77,98.38,16.73,98,20.94,96.81,35.4,86.82,45,82.87,48.44"/><path class="cls-1" d="M65.43,8.38c-1.8,1.5-4.8.86-6.73-1.43"/><path class="cls-1" d="M68.85,10.86A9.8,9.8,0,0,1,55,9.67"/><line class="cls-1" x1="49.93" y1="48.88" x2="93.93" y2="48.88"/><line class="cls-1" x1="47.93" y1="54.88" x2="97.93" y2="54.88"/><line class="cls-1" x1="93.93" y1="48.88" x2="97.93" y2="54.88"/><circle class="cls-1" cx="35.43" cy="48.38" r="11.5"/><circle class="cls-1" cx="35.43" cy="48.38" r="14"/><text class="cls-2" transform="translate(32.03 51.95)">+</text><rect class="cls-1" x="-0.07" y="56.88" width="25" height="6" rx="3" ry="3" transform="translate(-19.73 7.86) rotate(-20)"/><line class="cls-1" x1="4.93" y1="58.88" x2="6.93" y2="64.88"/></g></g></svg>