<svg xmlns="http://www.w3.org/2000/svg" viewBox="0 0 89 87.66"><defs><style>.cls-1,.cls-2{fill:#fff;}.cls-2,.cls-3{stroke:#000;stroke-miterlimit:10;}.cls-3{fill:none;}</style></defs><title>Ресурс 1</title><g id="Слой_2" data-name="Слой 2"><g id="Слой_1-2" data-name="Слой 1"><circle class="cls-1" cx="76.5" cy="46.2" r="12"/><path d="M76.5,34.7A11.5,11.5,0,1,1,65,46.2,11.51,11.51,0,0,1,76.5,34.7m0-1A12.5,12.5,0,1,0,89,46.2,12.5,12.5,0,0,0,76.5,33.7Z"/><circle class="cls-1" cx="76.5" cy="46.2" r="7"/><path d="M76.5,39.7A6.5,6.5,0,1,1,70,46.2a6.51,6.51,0,0,1,6.5-6.5m0-1A7.5,7.5,0,1,0,84,46.2a7.5,7.5,0,0,0-7.5-7.5Z"/><path class="cls-2" d="M7.5,1.2c-8.95,19.45-4.84,37.61,5,43a18.25,18.25,0,0,0,17,0c10.33-5.76,14.57-24.08,6-44"/><rect class="cls-2" x="35.5" y="4.2" width="9" height="11" rx="4.5" ry="4.5"/><rect class="cls-2" x="0.5" y="5.2" width="9" height="11" rx="4.5" ry="4.5"/><ellipse class="cls-2" cx="21" cy="48.7" rx="4.5" ry="9"/><path class="cls-3" d="M75.87,57.85C72.72,72.22,61.57,84,50,86.6,35,90,19.67,77.69,21.36,57.78"/></g></g></svg>