<svg xmlns="http://www.w3.org/2000/svg" viewBox="0 0 31.78 86.58"><defs><style>.cls-1{fill:none;stroke:#000;stroke-miterlimit:10;}</style></defs><title>Ресурс 2</title><g id="Слой_2" data-name="Слой 2"><g id="Слой_1-2" data-name="Слой 1"><polyline class="cls-1" points="27.39 18.1 27.39 71.1 4.39 71.1 4.39 18.1 7.56 18.1"/><line class="cls-1" x1="20.9" y1="18.1" x2="27.39" y2="18.1"/><path class="cls-1" d="M18.39,17.12c0,.49-1.12.9-2.5.9h0c-1.37,0-2.5-.41-2.5-.9V14.58c0-.5,1.13-.91,2.5-.91h0c1.38,0,2.5.41,2.5.91v2.54"/><line class="cls-1" x1="16.02" y1="13.6" x2="16.02"/><line class="cls-1" x1="13.39" y1="71.1" x2="13.39" y2="86.05"/><line class="cls-1" x1="18.39" y1="71.17" x2="18.39" y2="86.03"/><line class="cls-1" x1="4.39" y1="71.1" y2="71.1"/><line class="cls-1" x1="31.78" y1="71.1" x2="27.39" y2="71.1"/><line class="cls-1" x1="4.52" y1="86.08" x2="27.52" y2="86"/><line class="cls-1" x1="4.39" y1="64.9" x2="27.39" y2="64.9"/><line class="cls-1" x1="16.02" y1="42.53" x2="27.39" y2="42.53"/><line class="cls-1" x1="15.65" y1="31.31" x2="27.02" y2="31.31"/><line class="cls-1" x1="15.65" y1="53.72" x2="27.02" y2="53.72"/></g></g></svg>