<svg xmlns="http://www.w3.org/2000/svg" viewBox="0 0 95.36 70.33"><defs><style>.cls-1{fill:none;stroke:#000;stroke-miterlimit:10;}</style></defs><title>Ресурс 3</title><g id="Слой_2" data-name="Слой 2"><g id="Слой_1-2" data-name="Слой 1"><path class="cls-1" d="M38.68,7.5c-2-2-7.09-6.3-14.34-6.92-10.4-.9-20,6.25-22.74,12.36-5.66,12.58,10.91,35.82,41.78,57"/><path class="cls-1" d="M47.64,7.5c2-2,7.09-6.3,14.34-6.92,10.4-.9,20,6.25,22.74,12.36,5.66,12.58-10.91,35.82-41.78,57"/><line class="cls-1" x1="7.28" y1="45.46" x2="22.65" y2="45.46"/><line class="cls-1" x1="22.65" y1="45.62" x2="34.84" y2="11.66"/><line class="cls-1" x1="47.03" y1="45.62" x2="34.84" y2="11.66"/><line class="cls-1" x1="47.03" y1="45.62" x2="56.46" y2="45.46"/><line class="cls-1" x1="59.16" y1="53.52" x2="56.26" y2="45.46"/><line class="cls-1" x1="59.22" y1="53.37" x2="71.42" y2="19.42"/><line class="cls-1" x1="80.16" y1="43.46" x2="71.53" y2="19.42"/><line class="cls-1" x1="79.99" y1="43.46" x2="95.36" y2="43.46"/></g></g></svg>