<?xml version="1.0" encoding="UTF-8" standalone="no"?>
<svg
   xmlns:dc="http://purl.org/dc/elements/1.1/"
   xmlns:cc="http://creativecommons.org/ns#"
   xmlns:rdf="http://www.w3.org/1999/02/22-rdf-syntax-ns#"
   xmlns:svg="http://www.w3.org/2000/svg"
   xmlns="http://www.w3.org/2000/svg"
   viewBox="0 0 229.47795 243.49446"
   height="243.49446"
   width="229.47795"
   id="svg2"
   version="1.1">
  <metadata
     id="metadata8">
    <rdf:RDF>
      <cc:Work
         rdf:about="">
        <dc:format>image/svg+xml</dc:format>
        <dc:type
           rdf:resource="http://purl.org/dc/dcmitype/StillImage" />
        <dc:title></dc:title>
      </cc:Work>
    </rdf:RDF>
  </metadata>
  <defs
     id="defs6" />
  <path
     id="path12"
     d="m 76.655881,243.22046 c 0,-0.25337 1.34586,-3.7244 2.99079,-7.71341 2.76115,-6.69585 4.21944,-13.14852 5.3426,-23.64008 l 0.44082,-4.11775 -14.63711,-0.52604 c -11.02796,-0.39634 -16.23984,-1.04385 -21.1371,-2.62603 -22.78541,-7.36135 -40.1699605,-25.80727 -45.8153105,-48.61243 -4.17444997,-16.86324 -4.69077997,-23.3199 -2.77241,-34.66892 3.35077,-19.82313 7.11181,-30.584946 15.9325005,-45.589123 2.66463,-4.53259 5.13963,-8.42271 5.5,-8.64472 0.36037,-0.222 0.686,1.9153 0.72363,4.74956 0.17621,13.27438 12.3845,26.623127 34.43159,37.648073 10.57909,5.29022 25.08337,14.07316 31.29876,18.95269 19.643129,15.42126 24.863669,44.28139 11.942379,66.01967 l -2.694289,4.53277 -0.7382,-6.48184 c -0.97843,-8.59109 -4.12924,-16.73222 -9.83237,-25.40504 -4.11003,-6.25017 -15.8514,-19.07133 -16.69375,-18.22898 -0.17051,0.17051 1.78932,3.41634 4.3552,7.21294 11.5801,17.13456 16.57875,32.92171 16.75052,52.90292 0.12592,14.6488 -0.81899,18.99765 -5.65184,26.01187 -2.67686,3.8851 -9.73641,9.84795 -9.73641,8.22387 z m 62.575629,-22.72377 c -2.01966,-3.84342 -8.17229,-14.97347 -13.67252,-24.73344 -7.13696,-12.6643 -9.77173,-18.22085 -9.20176,-19.40584 2.07072,-4.30512 27.8853,-45.79775 28.51482,-45.83281 0.39389,-0.0219 0.84389,4.79287 1,10.69957 l 0.28383,10.73946 5,0.78678 c 2.75,0.43273 14.9,0.88747 27,1.01055 21.86515,0.22239 22.04597,0.20668 29.5,-2.56206 4.125,-1.5322 8.32144,-3.05606 9.32542,-3.38635 2.75466,-0.90625 -23.98777,42.66805 -31.28332,50.97325 -5.71273,6.50333 -7.6867,7.09671 -25.5421,7.67802 l -16,0.5209 0.25034,10.25 c 0.13769,5.6375 -0.14407,10.25 -0.62613,10.25 -0.48206,0 -2.52892,-3.14462 -4.54858,-6.98803 z m 45.60752,-76.76197 c -2.14778,-3.7125 -6.74498,-11.925 -10.216,-18.25 -3.47102,-6.325 -8.69411,-15.76698 -11.60687,-20.98217 -2.91277,-5.215196 -4.972,-9.806106 -4.57609,-10.202016 0.93316,-0.93316 43.87362,-24.729947 45.22492,-25.062797 0.9079,-0.22363 19.49526,32.117803 23.70557,41.246983 2.14089,4.64206 2.76847,13.49201 1.33442,18.81767 -0.63619,2.36262 -2.6871,5.98964 -4.55759,8.06004 -5.7209,6.33236 -22.58094,13.12229 -32.58389,13.12229 -2.42839,0 -3.36098,-0.93613 -6.72447,-6.75 z M 62.114111,70.369437 c -8.22703,-5.00435 -18.41923,-11.18814 -22.64934,-13.74176 l -7.69111,-4.64295 2.27183,-4 c 2.21804,-3.9053 15.68423,-25.92541 20.85587,-34.10384 6.39498,-10.1129996 17.44483,-15.6295196 26.80762,-13.38341964 8.7629,2.10218004 19.591269,10.24966964 25.997829,19.56127964 2.83187,4.11598 2.9299,4.56237 1.57667,7.17924 -1.87244,3.62089 -30.558719,50.51594 -31.496159,51.48851 -0.39324,0.40797 -7.44618,-3.35271 -15.67321,-8.35706 z m 65.791769,3.36829 c -6.7375,-0.17301 -12.25,-0.68991 -12.25,-1.14867 0,-0.45877 3.825,-3.17979 8.5,-6.04672 4.675,-2.86693 8.5,-5.82979 8.5,-6.58413 0,-2.58769 -16.83857,-34.97253 -21.97852,-42.27026 -2.84162,-4.03455 -7.79542,-9.3594596 -11.080379,-11.9104696 -3.2676,-2.53752 -5.9411,-4.83251004 -5.9411,-5.09996004 0,-0.75505 44.413499,0.78452004 54.443199,1.88725004 13.4629,1.48019 15.48509,2.93866 24.86759,17.9353996 4.29593,6.86651 8.18832,13.13552 8.64976,13.93113 0.67854,1.16996 2.49413,0.43157 9.49449,-3.86138 4.76053,-2.91939 8.82612,-5.13736 9.03464,-4.92885 0.20852,0.20852 -2.76052,5.54615 -6.59786,11.86139 -3.83734,6.31525 -10.44253,17.21977 -14.6782,24.23227 l -7.70121,12.75 -15.50621,-0.21622 c -8.52841,-0.11893 -21.0187,-0.35778 -27.7562,-0.53078 z"
     style="fill:#000000" />
</svg>
