<?xml version="1.0" encoding="UTF-8" standalone="no"?>
<svg
   xmlns:dc="http://purl.org/dc/elements/1.1/"
   xmlns:cc="http://creativecommons.org/ns#"
   xmlns:rdf="http://www.w3.org/1999/02/22-rdf-syntax-ns#"
   xmlns:svg="http://www.w3.org/2000/svg"
   xmlns="http://www.w3.org/2000/svg"
   viewBox="0 0 599.24683 599.44714"
   height="599.44714"
   width="599.24683"
   id="svg2"
   version="1.1">
  <metadata
     id="metadata8">
    <rdf:RDF>
      <cc:Work
         rdf:about="">
        <dc:format>image/svg+xml</dc:format>
        <dc:type
           rdf:resource="http://purl.org/dc/dcmitype/StillImage" />
        <dc:title></dc:title>
      </cc:Work>
    </rdf:RDF>
  </metadata>
  <defs
     id="defs6" />
  <path
     id="path12"
     d="m 279.45731,599.27058 c -1.925,-0.21756 -8.225,-0.89418 -14,-1.5036 -85.86676,-9.0613 -166.960656,-58.69664 -215.538206,-131.92499 -26.11306,-39.3642 -41.2948598,-79.89413 -48.1338398,-128.5 -2.39263003,-17.00483 -2.37731003,-58.30945 0.028,-75.5 C 13.156974,180.76939 53.337744,110.97183 116.95731,61.826508 170.92022,20.140858 239.9693,-2.0957416 308.45731,0.15574834 334.88788,1.0246283 354.8738,4.0205983 379.55282,10.813258 512.76145,47.477618 603.53805,170.70955 599.09036,308.84199 c -2.03671,63.25422 -22.44906,121.45052 -60.15361,171.5 -43.60163,57.87733 -107.4832,98.48054 -177.63405,112.90442 -21.46772,4.41403 -33.39856,5.69864 -56.34539,6.06679 -12.1,0.19412 -23.575,0.17494 -25.5,-0.0426 z m 54,-70.95292 c 50.70537,-7.70683 96.82899,-31.49418 132.04075,-68.09742 34.24254,-35.59572 54.80416,-77.42119 62.61982,-127.37825 2.50038,-15.9822 2.49337,-51.03296 -0.0133,-66.5 -8.06191,-49.74487 -28.47992,-91.44588 -61.64727,-125.90619 -35.8389,-37.23602 -79.12729,-60.040632 -130.5,-68.748292 -17.53379,-2.97197 -52.19656,-3.22717 -69.5,-0.51169 -53.07152,8.32868 -98.29009,31.789082 -134.33163,69.694272 -32.937366,34.64049 -53.885516,77.65521 -61.348236,125.9719 -2.44178,15.80906 -2.43451,49.92115 0.0141,66 9.924,65.16711 46.061326,122.32848 100.478396,158.93486 31.63939,21.28383 70.37663,34.80076 110.18741,38.44868 9.14189,0.83769 41.8259,-0.36149 52,-1.90787 z m -69,-46.95662 v -22.48095 l -2.75,-0.5793 c -7.56443,-1.59351 -22.67002,-6.83514 -30.1607,-10.46575 -13.25556,-6.42475 -24.47099,-14.28802 -35.12617,-24.62735 -20.25802,-19.65752 -32.20782,-43.62949 -34.6047,-69.41901 l -0.64563,-6.94669 4.3936,-0.16775 c 2.41648,-0.0923 16.88837,-0.22587 32.15975,-0.2969 l 27.76614,-0.12915 1.03794,4.0469 c 4.22022,16.45462 7.75156,24.21547 14.23653,31.28772 4.42066,4.821 12.16139,10.22212 17.19324,11.99664 1.65,0.58189 3.7931,1.37929 4.76244,1.77202 1.66705,0.6754 1.74823,-1.27933 1.5,-36.11737 l -0.26244,-36.8314 -7.5,-1.25437 c -54.79951,-9.16515 -86.0256,-36.17837 -89.9407,-77.80634 -3.83522,-40.77859 17.26215,-74.20271 59.38768,-94.08665 9.65574,-4.55766 27.98825,-10.41335 32.60128,-10.41335 6.16003,0 5.95174,0.80864 5.95174,-23.10699 V 93.841978 h 30.5 30.5 V 115.7746 c 0,24.77368 -0.91595,22.37084 9,23.61008 7.98662,0.99812 25.25361,6.88189 33.96336,11.57311 21.25624,11.44896 37.09268,27.15431 46.80461,46.41716 5.43726,10.78437 8.16471,20.96629 9.70153,36.21704 l 0.62981,6.25 h -32.0306 -32.03061 l -0.60886,-2.75 c -4.14241,-18.70963 -17.09964,-33.57459 -31.23612,-35.83511 l -4.19312,-0.67051 v 33.52452 33.52452 l 8.75,1.1955 c 12.64118,1.72713 34.54993,7.22894 43.25876,10.86331 25.80251,10.76788 42.66451,27.74114 49.81907,50.14777 6.70138,20.98738 4.90665,45.50652 -4.79864,65.55762 -15.22723,31.45942 -50.61891,57.00897 -86.52919,62.46617 -4.4,0.66865 -8.5625,1.37272 -9.25,1.56459 -0.95162,0.26558 -1.25,5.60785 -1.25,22.38024 v 22.03138 h -30.5 -30.5 z m 72.85874,-87.54712 c 24.39711,-6.76079 36.5483,-23.84343 28.78841,-40.47193 -5.03654,-10.79268 -17.36343,-17.94216 -34.39715,-19.95004 l -5.25,-0.61885 v 31.53445 c 0,36.17118 -1.22084,32.85379 10.85874,29.50637 z M 264.45731,228.89589 v -27.9461 l -5.25,1.55762 c -16.76862,4.97509 -26.89364,15.75821 -26.89233,28.64027 6.1e-4,5.99873 1.27345,9.86637 4.74483,14.41758 4.35769,5.71323 15.6699,10.95407 24.1475,11.18731 l 3.25,0.0894 z"
     style="fill:#000000" />
</svg>
