<?xml version="1.0" encoding="UTF-8" standalone="no"?>
<svg
   xmlns:dc="http://purl.org/dc/elements/1.1/"
   xmlns:cc="http://creativecommons.org/ns#"
   xmlns:rdf="http://www.w3.org/1999/02/22-rdf-syntax-ns#"
   xmlns:svg="http://www.w3.org/2000/svg"
   xmlns="http://www.w3.org/2000/svg"
   viewBox="0 0 290.77606 244.26038"
   height="244.26038"
   width="290.77606"
   id="svg2"
   version="1.1">
  <metadata
     id="metadata8">
    <rdf:RDF>
      <cc:Work
         rdf:about="">
        <dc:format>image/svg+xml</dc:format>
        <dc:type
           rdf:resource="http://purl.org/dc/dcmitype/StillImage" />
        <dc:title></dc:title>
      </cc:Work>
    </rdf:RDF>
  </metadata>
  <defs
     id="defs6" />
  <path
     id="path12"
     d="m 50.776055,242.68196 c -3.3,-0.7843 -7.27382,-1.94145 -8.83072,-2.57144 -2.81093,-1.13745 -2.82863,-1.20048 -2.53242,-9.01779 l 0.2983,-7.87234 -5.55795,-4.36224 c -3.05687,-2.39924 -6.511,-5.57385 -7.67583,-7.0547 l -2.11789,-2.69245 -7.64871,1.58178 c -4.20679,0.86999 -7.8492201,1.58179 -8.0942801,1.58179 -1.03269,0 -6.38173,-12.98558 -7.70667997,-18.70908 -1.64859,-7.12158 -1.94488003,-6.64899 6.96737997,-11.11329 l 6.1011901,-3.05619 0.62465,-5.97633 c 0.34356,-3.28698 1.26542,-7.83616 2.04857,-10.10929 l 1.42392,-4.13296 -5.28375,-6.15509 -5.2837401,-6.15508 2.4956801,-4.04635 c 3.23638,-5.24724 13.28699,-15.54634 15.17126,-15.54634 0.80387,0 4.30461,1.85231 7.77943,4.11624 5.86032,3.81815 6.48092,4.01095 8.56972,2.66233 2.99033,-1.93068 11.54125,-4.77857 14.34789,-4.77857 1.91098,0 2.6308,-1.17425 4.90398,-8 2.59823,-7.80179 2.74438,-8 5.89846,-8 4.66701,0 14.41965,1.86066 19.34706,3.69114 l 4.24553,1.57716 -0.60937,8.11585 -0.60936,8.11585 3.09196,1.79361 c 1.70057,0.98649 5.3518,3.99477 8.113845,6.68508 5.50663,5.36362 6.12157,5.09721 2.8838,-1.24935 -2.02535,-3.97001 -6.861925,-17.23403 -6.861925,-18.81843 0,-0.40633 2.944822,-2.38561 6.544045,-4.39841 5.30756,-2.96816 6.42975,-4.01973 5.93917,-5.56541 -0.33268,-1.04818 -0.76628,-6.03443 -0.96355,-11.08055 l -0.35868,-9.17478 -6.64126,-2.58628 -6.641275,-2.58629 0.68886,-5.00861 c 1.11362,-8.097 5.706205,-21.02405 7.432695,-20.92132 0.825,0.0491 4.28527,0.37684 7.68949,0.72834 5.62032,0.58032 6.24816,0.4542 6.82764,-1.37156 0.35098,-1.10586 2.85839,-5.33018 5.57201,-9.38737 l 4.93385,-7.37673 -3.66098,-6.14571 -3.66099,-6.14572 3.89949,-4.07213 c 4.05476,-4.23428 15.03827,-12.81838 16.40135,-12.81838 0.43001,0 3.07536,2.06208 5.87856,4.5824 l 5.09672,4.58239 10.26143,-4.0152 10.26143,-4.0152 0.76959,-6.78678 c 0.42327,-3.73273 1.16639,-7.18359 1.65139,-7.66858 0.48499,-0.485 6.46574,-1.12296 13.29056,-1.41771 L 199.89635,0 l 1.26103,5.88729 c 2.02186,9.43935 1.79312,9.11238 6.9016,9.86539 2.59439,0.38243 7.40435,1.59469 10.68879,2.69392 l 5.9717,1.9986 1.8781,-2.33531 c 1.03295,-1.28442 3.16821,-3.8528 4.74503,-5.70751 l 2.86695,-3.37219 5.28326,2.74925 c 7.2043,3.74892 16.78541,10.54056 16.77348,11.89003 -0.005,0.60781 -1.13037,3.51229 -2.5,6.4544 -1.36963,2.94211 -2.49023,5.89542 -2.49023,6.56291 0,0.66749 1.38802,2.5353 3.08449,4.1507 2.36922,2.25601 7.65074,8.92179 10.49297,13.24314 0.11071,0.16832 2.90353,-0.39418 6.20626,-1.25 3.30273,-0.85583 6.66726,-1.55605 7.47674,-1.55605 2.43642,0 12.11514,23.96954 10.00805,24.78513 -0.42268,0.16361 -3.24351,1.78649 -6.26851,3.60639 -3.9311,2.36503 -5.42897,3.85084 -5.25101,5.2087 0.13694,1.04488 0.46907,6.13817 0.73806,11.31843 l 0.48907,9.41866 6.26194,2.63901 6.26194,2.63902 -0.20966,4.39716 c -0.11531,2.41845 -1.42871,8.37119 -2.91866,13.22832 l -2.709,8.83114 -4.58134,-0.60031 c -2.51974,-0.33018 -5.8192,-0.8322 -7.33215,-1.11562 -2.3111,-0.43293 -3.03041,-0.003 -4.5,2.69052 -0.96205,1.7632 -3.66169,6.05414 -5.99919,9.53543 -2.3375,3.4813 -4.25,6.59613 -4.25,6.92186 0,0.32573 1.575,3.05435 3.5,6.06361 1.925,3.00926 3.5,5.88581 3.5,6.39234 0,1.29022 -16.48656,14.74248 -19.07442,15.56383 -2.01276,0.63883 -6.56222,-2.5919 -10.50942,-7.46309 -0.99729,-1.23075 -2.23578,-0.98149 -8.54129,1.71907 -4.05618,1.7372 -8.62424,3.44923 -10.15125,3.8045 -3.6382,0.84647 -4.72362,3.09633 -4.72362,9.79114 0,3.0287 -0.41093,5.76069 -0.91317,6.07109 -1.71946,1.06269 -17.5832,2.25506 -22.00642,1.65407 l -4.41895,-0.6004 -1.58073,-6.91353 -1.58073,-6.91353 -6,-1.25631 c -3.3,-0.69097 -8.025,-1.9941 -10.5,-2.89584 l -4.5,-1.63953 -5.14086,5.7626 -5.14087,5.76259 -8.19526,-4.95323 c -4.5074,-2.72427 -9.52942,-6.07822 -11.16007,-7.45322 l -2.9648,-2.5 3.05093,-6.26593 c 1.67801,-3.44626 3.05093,-6.50337 3.05093,-6.79356 0,-0.2902 -1.53319,-2.19553 -3.4071,-4.23407 -1.8739,-2.03854 -4.32402,-4.83144 -5.4447,-6.20644 -1.7676,-2.16872 -1.63893,-1.33478 0.97097,6.29329 1.65472,4.83631 2.86734,9.78631 2.69471,11 -0.22403,1.57504 -2.21569,3.19534 -6.95776,5.66043 l -6.64388,3.45372 -0.65688,5.806 c -0.36128,3.1933 -1.28783,7.9025 -2.05899,10.46489 l -1.40212,4.65889 5.13103,5.92283 5.13104,5.92283 -1.87119,3.4746 c -2.51261,4.66562 -13.30045,16.34252 -15.09823,16.34252 -0.78976,0 -4.32257,-1.82308 -7.850705,-4.0513 l -6.41477,-4.0513 -3.81072,1.91598 c -3.79045,1.90578 -8.38454,3.47199 -13.48048,4.59572 -2.31017,0.50943 -2.98363,1.59811 -5,8.08272 l -2.33023,7.49399 -4.5,-0.0762 c -2.475,-0.0419 -7.2,-0.71791 -10.5,-1.5022 z m 19.40493,-43.38012 c 4.61488,-1.32353 9.32782,-4.69368 11.98326,-8.56904 11.85309,-17.29846 -6.38894,-39.75124 -25.58658,-31.49263 -6.17539,2.65658 -8.52563,5.02592 -11.37505,11.46752 -4.58896,10.37411 -0.42713,21.52488 10.00894,26.81688 5.75169,2.91661 9.46115,3.35702 14.96943,1.77727 z M 204.76066,143.73657 c 22.11537,-5.76033 37.08137,-28.63991 33.48004,-51.18333 -3.54776,-22.20808 -23.30677,-39.27867 -45.46464,-39.27867 -12.00054,0 -25.46348,5.89714 -33.47492,14.66295 -16.86386,18.45173 -16.66074,45.28675 0.47877,63.25574 5.53754,5.80553 14.97362,11.50549 21.66922,13.08951 5.64835,1.33627 17.1158,1.06758 23.31153,-0.5462 z"
     style="fill:#000000" />
</svg>
