<svg xmlns="http://www.w3.org/2000/svg" viewBox="0 0 488.89 183.34"><defs><style>.cls-1{fill:#607c8e;}.cls-2{fill:#737b88;}.cls-3{fill:#dda867;}.cls-4{fill:#cb8f6b;}.cls-5{fill:#997178;}.cls-6{fill:#fff;stroke:#fff;stroke-linecap:round;stroke-linejoin:round;stroke-width:6.99px;}.cls-7{fill:#201600;}</style></defs><title>Ресурс 3</title><g id="Слой_2" data-name="Слой 2"><g id="Layer_1" data-name="Layer 1"><polygon class="cls-1" points="72.49 138.94 68.06 138.94 189.13 0 193.57 0 72.49 138.94"/><polygon class="cls-1" points="92.62 138.94 83.51 138.94 204.58 0 213.69 0 92.62 138.94"/><polygon class="cls-1" points="117.74 138.94 103.95 138.94 225.03 0 238.82 0 117.74 138.94"/><polygon class="cls-2" points="147.86 138.94 129.39 138.94 250.46 0 268.93 0 147.86 138.94"/><polygon class="cls-1" points="231.06 138.94 226.63 138.94 347.7 0 352.13 0 231.06 138.94"/><polygon class="cls-3" points="214.91 138.94 207.81 138.94 328.89 0 335.98 0 214.91 138.94"/><polygon class="cls-4" points="195.76 138.94 186.01 138.94 307.08 0 316.84 0 195.76 138.94"/><polygon class="cls-5" points="173.62 138.94 161.21 138.94 282.28 0 294.7 0 173.62 138.94"/><path class="cls-6" d="M196.72,40.67h60.6l1.46,28.21H255.3Q251.85,44,237.29,44c-1.95,0-3.29.33-4,1a4.41,4.41,0,0,0-1.08,3.33V108a3.23,3.23,0,0,0,1.06,2.68,5.55,5.55,0,0,0,3.48.86h7.52v3.78H209.58v-3.78h8.58a3.68,3.68,0,0,0,2.62-.86,3,3,0,0,0,.91-2.27V47.89a3.56,3.56,0,0,0-1.16-2.9,5.71,5.71,0,0,0-3.73-1q-7.32,0-12.21,6.91-4,5.7-5.81,18H195.1Z"/><path class="cls-6" d="M314.69,46.48l3.48-7.22h3.18l1.31,30h-3.38Q316,56.62,310.91,50.61,304.64,43.1,296,43.1q-9.39,0-15.29,8.37t-5.9,28.36q0,16.8,6.76,25.63,5.74,7.47,16.15,7.47a21.28,21.28,0,0,0,15.23-5.83q6.16-5.82,8-17.58h3.58Q323,102.84,315.4,110t-19.08,7.17a32.68,32.68,0,0,1-17.13-4.69A33.83,33.83,0,0,1,266.73,99a40.58,40.58,0,0,1-4.67-19.3,46.78,46.78,0,0,1,4.82-20.94q4.81-9.8,12.34-14.71a29,29,0,0,1,16.2-4.92,27.08,27.08,0,0,1,9.38,1.67A39.45,39.45,0,0,1,314.69,46.48Z"/><path class="cls-6" d="M383.12,46.48l3.48-7.22h3.18l1.31,30h-3.38q-3.33-12.66-8.38-18.67-6.25-7.51-14.93-7.51-9.39,0-15.29,8.37t-5.9,28.36q0,16.8,6.76,25.63,5.75,7.47,16.14,7.47a21.28,21.28,0,0,0,15.24-5.83q6.15-5.82,8-17.58H393q-1.57,13.32-9.14,20.48t-19.07,7.17a32.68,32.68,0,0,1-17.13-4.69A33.76,33.76,0,0,1,335.16,99a40.58,40.58,0,0,1-4.67-19.3,46.78,46.78,0,0,1,4.82-20.94q4.81-9.8,12.34-14.71a29,29,0,0,1,16.19-4.92,27.09,27.09,0,0,1,9.39,1.67A39.63,39.63,0,0,1,383.12,46.48Z"/><path class="cls-7" d="M196.72,40.67h60.6l1.46,28.21H255.3Q251.85,44,237.29,44c-1.95,0-3.29.33-4,1a4.41,4.41,0,0,0-1.08,3.33V108a3.23,3.23,0,0,0,1.06,2.68,5.55,5.55,0,0,0,3.48.86h7.52v3.78H209.58v-3.78h8.58a3.68,3.68,0,0,0,2.62-.86,3,3,0,0,0,.91-2.27V47.89a3.56,3.56,0,0,0-1.16-2.9,5.71,5.71,0,0,0-3.73-1q-7.32,0-12.21,6.91-4,5.7-5.81,18H195.1Z"/><path class="cls-7" d="M314.69,46.48l3.48-7.22h3.18l1.31,30h-3.38Q316,56.62,310.91,50.61,304.64,43.1,296,43.1q-9.39,0-15.29,8.37t-5.9,28.36q0,16.8,6.76,25.63,5.74,7.47,16.15,7.47a21.28,21.28,0,0,0,15.23-5.83q6.16-5.82,8-17.58h3.58Q323,102.84,315.4,110t-19.08,7.17a32.68,32.68,0,0,1-17.13-4.69A33.83,33.83,0,0,1,266.73,99a40.58,40.58,0,0,1-4.67-19.3,46.78,46.78,0,0,1,4.82-20.94q4.81-9.8,12.34-14.71a29,29,0,0,1,16.2-4.92,27.08,27.08,0,0,1,9.38,1.67A39.45,39.45,0,0,1,314.69,46.48Z"/><path class="cls-7" d="M383.12,46.48l3.48-7.22h3.18l1.31,30h-3.38q-3.33-12.66-8.38-18.67-6.25-7.51-14.93-7.51-9.39,0-15.29,8.37t-5.9,28.36q0,16.8,6.76,25.63,5.75,7.47,16.14,7.47a21.28,21.28,0,0,0,15.24-5.83q6.15-5.82,8-17.58H393q-1.57,13.32-9.14,20.48t-19.07,7.17a32.68,32.68,0,0,1-17.13-4.69A33.76,33.76,0,0,1,335.16,99a40.58,40.58,0,0,1-4.67-19.3,46.78,46.78,0,0,1,4.82-20.94q4.81-9.8,12.34-14.71a29,29,0,0,1,16.19-4.92,27.09,27.09,0,0,1,9.39,1.67A39.63,39.63,0,0,1,383.12,46.48Z"/><path class="cls-7" d="M.42,159.33H16.09l.37,7.3h-.9q-.88-6.44-4.65-6.44a1.57,1.57,0,0,0-1,.26,1.13,1.13,0,0,0-.28.86v15.43a.85.85,0,0,0,.27.69,1.45,1.45,0,0,0,.91.22h1.94v1h-9v-1H6a.93.93,0,0,0,.68-.22.78.78,0,0,0,.24-.59V161.2a.91.91,0,0,0-.31-.75,1.45,1.45,0,0,0-1-.26A3.78,3.78,0,0,0,2.45,162,11.07,11.07,0,0,0,1,166.63H0Z"/><path class="cls-7" d="M27.29,158.93a8.69,8.69,0,0,1,4.58,1.28,9,9,0,0,1,3.34,3.59,11.8,11.8,0,0,1,0,10.39,9,9,0,0,1-3.33,3.62,8.45,8.45,0,0,1-4.5,1.3A8.1,8.1,0,0,1,23,177.84a9.18,9.18,0,0,1-3.26-3.64A11.11,11.11,0,0,1,18.51,169a10.91,10.91,0,0,1,1.2-5.14A9.13,9.13,0,0,1,23,160.22,8.1,8.1,0,0,1,27.29,158.93Zm.21,1A4.91,4.91,0,0,0,23.38,162c-1.05,1.42-1.58,3.71-1.58,6.89,0,3.46.54,5.84,1.62,7.16a5.11,5.11,0,0,0,6.94,1.09,6,6,0,0,0,2-2.86,14.58,14.58,0,0,0,.75-5.14,16.52,16.52,0,0,0-.71-5.42,5.87,5.87,0,0,0-2-2.89A4.84,4.84,0,0,0,27.5,159.93Z"/><path class="cls-7" d="M39.12,159.33H49.18a6.93,6.93,0,0,1,4.53,1.3,4.09,4.09,0,0,1,1.57,3.28,3.86,3.86,0,0,1-1.09,2.78,7.48,7.48,0,0,1-3.3,1.82A8.6,8.6,0,0,1,55,170.32a4,4,0,0,1,1.36,3.11,4.32,4.32,0,0,1-.78,2.55A5.87,5.87,0,0,1,53,177.86a10.41,10.41,0,0,1-4.1.77H39.12v-1h1.59a1.9,1.9,0,0,0,1-.23.67.67,0,0,0,.33-.54V161.42a1,1,0,0,0-.32-.83,1.42,1.42,0,0,0-1-.28h-1.7Zm5.77,8.86h3.65a3.65,3.65,0,0,0,2.68-1,4.41,4.41,0,0,0,1-3.24,4.17,4.17,0,0,0-.48-2.18,2.7,2.7,0,0,0-1.38-1.14,9.5,9.5,0,0,0-3.14-.36,5,5,0,0,0-2,.23.86.86,0,0,0-.37.8Zm0,1v7.44a1,1,0,0,0,.3.78,1.75,1.75,0,0,0,1.1.26h2.34a4.93,4.93,0,0,0,3.43-1,5,5,0,0,0,0-6.32,4.29,4.29,0,0,0-3.17-1.14Z"/><path class="cls-7" d="M68.8,165.65H70l-2.66,5.68L70,177H68.8l-4.24-5.67Zm5.31,0h1.17l-2.66,5.68L75.28,177H74.11L70,171.33Z"/><path class="cls-7" d="M77.12,159.33H92.79l.38,7.3h-.9q-.88-6.44-4.66-6.44a1.54,1.54,0,0,0-1,.26,1.13,1.13,0,0,0-.29.86v15.43a.85.85,0,0,0,.28.69,1.42,1.42,0,0,0,.9.22h1.94v1h-9v-1h2.22a1,1,0,0,0,.68-.22.77.77,0,0,0,.23-.59V161.2a.9.9,0,0,0-.3-.75,1.47,1.47,0,0,0-1-.26A3.77,3.77,0,0,0,79.16,162a10.8,10.8,0,0,0-1.5,4.65h-1Z"/><path class="cls-7" d="M95.52,159.33h15.29l.37,6.51h-.88a8.61,8.61,0,0,0-1.64-4.31,3.84,3.84,0,0,0-2.94-1.22h-3.78a.89.89,0,0,0-.69.25,1,1,0,0,0-.23.75v6.88h1.65a2.73,2.73,0,0,0,2.15-.95,4.61,4.61,0,0,0,.89-2.92h.9v8.93h-.9a5.11,5.11,0,0,0-.9-3.18,2.91,2.91,0,0,0-2.29-.95H101v7.67a.76.76,0,0,0,.28.64,1.46,1.46,0,0,0,.92.22h3q4.86,0,5.6-6.21h.94l-.32,7.19H95.52v-1h1.32a1.65,1.65,0,0,0,1.08-.27.93.93,0,0,0,.31-.77v-15.3a.93.93,0,0,0-.27-.75,1.23,1.23,0,0,0-.86-.25H95.52Z"/><path class="cls-7" d="M113.56,159.33h7.92v1h-.93a3.3,3.3,0,0,0-1.34.17.51.51,0,0,0-.34.43,1.77,1.77,0,0,0,.39.74l3.7,5.43,2.83-4.3a2.69,2.69,0,0,0,.55-1.35.93.93,0,0,0-.47-.81,3.65,3.65,0,0,0-1.76-.31v-1h7v1a3.55,3.55,0,0,0-1.81.39,5.28,5.28,0,0,0-1.65,1.65l-4,5.79,6.1,8.79a1.38,1.38,0,0,0,.64.54,3.91,3.91,0,0,0,1.33.18v1H124.1v-1h1.06a2.09,2.09,0,0,0,1.07-.19.54.54,0,0,0,.29-.47,1.79,1.79,0,0,0-.39-.88l-3.95-5.72-2.92,4.18a3.21,3.21,0,0,0-.69,1.75,1.2,1.2,0,0,0,.4,1,1.8,1.8,0,0,0,1.19.35h.75v1h-7.35v-1a4,4,0,0,0,2-.61,6.21,6.21,0,0,0,1.78-1.85l4.1-5.9-5.29-7.56a2.55,2.55,0,0,0-2.64-1.42Z"/><path class="cls-7" d="M133.14,159.33h8.24v1h-1.51a1.38,1.38,0,0,0-1,.28,2.42,2.42,0,0,0-.24,1.36v6h8.82v-6a2.46,2.46,0,0,0-.23-1.38c-.15-.18-.51-.26-1.07-.26H144.7v-1h8.19v1h-1.5a1.66,1.66,0,0,0-.79.14,1,1,0,0,0-.37.5,5,5,0,0,0-.08,1.16V176a2.55,2.55,0,0,0,.17,1.22,1.5,1.5,0,0,0,1.24.44h1.33v1H144.7v-1h1.41a1.25,1.25,0,0,0,1.13-.45,2.89,2.89,0,0,0,.17-1.31v-6.71h-8.82V176a2.62,2.62,0,0,0,.16,1.23,1.31,1.31,0,0,0,1.12.43h1.51v1h-8.24v-1h1.58a1.15,1.15,0,0,0,.66-.17,1,1,0,0,0,.37-.48,5.77,5.77,0,0,0,.06-1.11V162a2.42,2.42,0,0,0-.24-1.36,1.39,1.39,0,0,0-1-.28h-1.38Z"/><path class="cls-7" d="M164.37,158.93a8.63,8.63,0,0,1,4.57,1.28,8.93,8.93,0,0,1,3.35,3.59,11.8,11.8,0,0,1,0,10.39,9,9,0,0,1-3.34,3.62,8.41,8.41,0,0,1-4.49,1.3,8.07,8.07,0,0,1-4.36-1.27,9.28,9.28,0,0,1-3.27-3.64,11.22,11.22,0,0,1-1.23-5.25,10.91,10.91,0,0,1,1.2-5.14,9.13,9.13,0,0,1,3.26-3.59A8.1,8.1,0,0,1,164.37,158.93Zm.21,1a4.89,4.89,0,0,0-4.12,2.11c-1.05,1.42-1.58,3.71-1.58,6.89,0,3.46.54,5.84,1.62,7.16a5.11,5.11,0,0,0,6.94,1.09,6.1,6.1,0,0,0,2-2.86,14.58,14.58,0,0,0,.75-5.14,16.52,16.52,0,0,0-.71-5.42,5.87,5.87,0,0,0-2-2.89A4.84,4.84,0,0,0,164.58,159.93Z"/><path class="cls-7" d="M178.92,159.33h16.53v1h-1.13a2,2,0,0,0-1.29.26,1.54,1.54,0,0,0-.26,1.07v14.61a1.1,1.1,0,0,0,1.37,1.4h1.31v1h-8.52v-1h1.69a1.9,1.9,0,0,0,1.12-.23c.18-.15.28-.54.28-1.17V160.4h-3.79a2.69,2.69,0,0,0-2,.56,3.63,3.63,0,0,0-.63,2l-.29,3.46q-.65,8.12-2,10.29a4,4,0,0,1-3.41,2.17,2.53,2.53,0,0,1-1.79-.65,2.4,2.4,0,0,1-.72-1.88,2.06,2.06,0,0,1,.5-1.47,1.75,1.75,0,0,1,1.34-.54,1.53,1.53,0,0,1,1.6,1.23,2.38,2.38,0,0,0,.29.66.55.55,0,0,0,.45.16c.81,0,1.44-1.21,1.88-3.61a41,41,0,0,0,.66-7.39,13.93,13.93,0,0,0-.38-4.26c-.25-.56-.82-.84-1.72-.84h-1.1Z"/><path class="cls-7" d="M206.93,158.93a8.69,8.69,0,0,1,4.58,1.28,8.91,8.91,0,0,1,3.34,3.59,11.71,11.71,0,0,1,0,10.39,9,9,0,0,1-3.33,3.62,8.45,8.45,0,0,1-4.5,1.3,8.1,8.1,0,0,1-4.36-1.27,9.18,9.18,0,0,1-3.26-3.64,11.23,11.23,0,0,1-1.24-5.25,10.91,10.91,0,0,1,1.2-5.14,9.23,9.23,0,0,1,3.27-3.59A8,8,0,0,1,206.93,158.93Zm.21,1A4.91,4.91,0,0,0,203,162c-1.05,1.42-1.58,3.71-1.58,6.89,0,3.46.54,5.84,1.62,7.16a5,5,0,0,0,4,2,4.92,4.92,0,0,0,2.93-.9,6,6,0,0,0,2-2.86,14.58,14.58,0,0,0,.75-5.14,16.83,16.83,0,0,0-.7-5.42,5.82,5.82,0,0,0-2-2.89A4.82,4.82,0,0,0,207.14,159.93Z"/><path class="cls-7" d="M218.75,159.33h14.91l.26,6.64H233q-.62-3.71-1.92-4.68a5.25,5.25,0,0,0-3.29-1h-2.74a.76.76,0,0,0-.86.86v15.29a1.12,1.12,0,0,0,.33.94,1.74,1.74,0,0,0,1.07.25h2v1h-8.85v-1h1.56c.74,0,1.11-.34,1.11-1V161.27c0-.64-.39-1-1.19-1h-1.48Z"/><path class="cls-7" d="M235.06,159.33H244v1h-1.53a2,2,0,0,0-1.29.26,1.54,1.54,0,0,0-.26,1.07v14.61a1.7,1.7,0,0,0,.23,1.1,1.66,1.66,0,0,0,1.14.3H244v1h-8.9v-1h1.68a1.77,1.77,0,0,0,1.15-.26,1.73,1.73,0,0,0,.26-1.14V161.64c0-.56-.08-.9-.24-1a2.16,2.16,0,0,0-1.34-.3h-1.51Z"/><path class="cls-7" d="M245.94,159.33h8.9v1h-1.53a2,2,0,0,0-1.28.26,1.48,1.48,0,0,0-.27,1.07v14.61c0,.59.08.95.24,1.1a1.61,1.61,0,0,0,1.13.3h1.71v1h-8.9v-1h1.68a1.1,1.1,0,0,0,1.41-1.4V161.64c0-.56-.08-.9-.23-1a2.22,2.22,0,0,0-1.35-.3h-1.51Zm1.94-5a1.3,1.3,0,0,1,1,.39,1.24,1.24,0,0,1,.39.93,1.35,1.35,0,0,1-1.35,1.35,1.28,1.28,0,0,1-.94-.4,1.34,1.34,0,0,1-.39-1,1.24,1.24,0,0,1,.39-.93A1.34,1.34,0,0,1,247.88,154.32Zm5,0a1.33,1.33,0,0,1,1,.38,1.28,1.28,0,0,1,.39.94,1.35,1.35,0,0,1-1.34,1.35,1.3,1.3,0,0,1-1-.39,1.28,1.28,0,0,1-.4-.94,1.25,1.25,0,0,1,.4-.95A1.3,1.3,0,0,1,252.91,154.32Z"/><path class="cls-7" d="M278.71,160.83l.9-1.86h.82l.35,7.76h-.88a12.55,12.55,0,0,0-2.17-4.83,4.84,4.84,0,0,0-3.86-1.94,4.64,4.64,0,0,0-3.95,2.16c-1,1.45-1.53,3.89-1.53,7.34q0,4.33,1.75,6.63a5,5,0,0,0,4.17,1.93,5.55,5.55,0,0,0,3.95-1.51,7.74,7.74,0,0,0,2.07-4.55h.93a8.4,8.4,0,0,1-2.36,5.3,6.93,6.93,0,0,1-4.94,1.85,8.43,8.43,0,0,1-4.43-1.21,8.78,8.78,0,0,1-3.22-3.49,10.55,10.55,0,0,1-1.21-5,12.15,12.15,0,0,1,1.25-5.42,9.26,9.26,0,0,1,3.19-3.8,7.49,7.49,0,0,1,4.19-1.27,6.9,6.9,0,0,1,2.42.43A10.28,10.28,0,0,1,278.71,160.83Z"/><path class="cls-7" d="M283.77,159.33h19.76v1h-1.44a1.26,1.26,0,0,0-1,.3,2.7,2.7,0,0,0-.26,1.5V176a4,4,0,0,0,.09,1.1.8.8,0,0,0,.44.4,2.08,2.08,0,0,0,.87.16h1.28v1h-8.17v-1h1.41c.56,0,.91-.12,1.07-.35a2.81,2.81,0,0,0,.24-1.41V160.43h-8.85V176a4.42,4.42,0,0,0,.07,1.09.87.87,0,0,0,.37.38,1.54,1.54,0,0,0,.84.19H292v1h-8.25v-1h1.58a1,1,0,0,0,.71-.2,1.73,1.73,0,0,0,.3-.37,4.11,4.11,0,0,0,.09-1.19V162a2.58,2.58,0,0,0-.22-1.34c-.14-.2-.5-.3-1.07-.3h-1.39Z"/><path class="cls-7" d="M306.53,159.33h15.3l.36,6.51h-.87a8.7,8.7,0,0,0-1.65-4.31,3.82,3.82,0,0,0-2.94-1.22H313a.9.9,0,0,0-.69.25,1.08,1.08,0,0,0-.23.75v6.88h1.65a2.76,2.76,0,0,0,2.16-.95,4.74,4.74,0,0,0,.89-2.92h.9v8.93h-.9a5.1,5.1,0,0,0-.91-3.18,2.9,2.9,0,0,0-2.28-.95H312v7.67a.76.76,0,0,0,.28.64,1.48,1.48,0,0,0,.93.22h3q4.86,0,5.61-6.21h.94l-.33,7.19H306.53v-1h1.32a1.64,1.64,0,0,0,1.08-.27.94.94,0,0,0,.32-.77v-15.3a.94.94,0,0,0-.28-.75,1.23,1.23,0,0,0-.86-.25h-1.58Z"/><path class="cls-7" d="M345.56,177.65v5.69h-1q-.06-4.71-5.31-4.71H325.33v-1h1.44a1.22,1.22,0,0,0,1-.31,2.76,2.76,0,0,0,.25-1.49V162a4.62,4.62,0,0,0-.08-1.09.79.79,0,0,0-.45-.4,2.1,2.1,0,0,0-.88-.16h-1.27v-1h8.17v1h-1.41a1.25,1.25,0,0,0-1.06.35,2.76,2.76,0,0,0-.24,1.4v15.5h8.82V162a3.27,3.27,0,0,0-.1-1.13,1.08,1.08,0,0,0-.36-.34,1.53,1.53,0,0,0-.83-.18h-1.5v-1h8.23v1h-1.58a1,1,0,0,0-.72.2,2.55,2.55,0,0,0-.29.37,3.58,3.58,0,0,0-.1,1.18V176c0,.69.17,1.14.52,1.34a2.26,2.26,0,0,0,1.17.3Z"/><path class="cls-7" d="M361.75,160.83l.9-1.86h.82l.34,7.76h-.87a12.7,12.7,0,0,0-2.17-4.83,4.87,4.87,0,0,0-3.86-1.94,4.66,4.66,0,0,0-4,2.16c-1,1.45-1.52,3.89-1.52,7.34q0,4.33,1.75,6.63a5,5,0,0,0,4.17,1.93,5.52,5.52,0,0,0,3.94-1.51,7.75,7.75,0,0,0,2.08-4.55h.92a8.34,8.34,0,0,1-2.36,5.3,6.89,6.89,0,0,1-4.93,1.85,8.41,8.41,0,0,1-4.43-1.21,8.78,8.78,0,0,1-3.22-3.49,10.43,10.43,0,0,1-1.21-5,12.15,12.15,0,0,1,1.25-5.42,9.26,9.26,0,0,1,3.19-3.8,7.46,7.46,0,0,1,4.18-1.27,6.91,6.91,0,0,1,2.43.43A10.46,10.46,0,0,1,361.75,160.83Z"/><path class="cls-7" d="M366.81,159.33h19.76v1h-1.44a1.25,1.25,0,0,0-1,.3,2.61,2.61,0,0,0-.26,1.5V176a4.66,4.66,0,0,0,.08,1.1.82.82,0,0,0,.45.4,2.08,2.08,0,0,0,.87.16h1.28v1H378.4v-1h1.41c.55,0,.91-.12,1.07-.35a3,3,0,0,0,.23-1.41V160.43h-8.85V176a4.21,4.21,0,0,0,.08,1.09.87.87,0,0,0,.37.38,1.54,1.54,0,0,0,.84.19h1.51v1h-8.25v-1h1.58a1,1,0,0,0,.71-.2,1.64,1.64,0,0,0,.29-.37,3.61,3.61,0,0,0,.1-1.19V162a2.69,2.69,0,0,0-.22-1.34c-.14-.2-.5-.3-1.07-.3h-1.39Z"/><path class="cls-7" d="M391.81,159.33h16.54v1h-1.14a2,2,0,0,0-1.28.26,1.48,1.48,0,0,0-.27,1.07v14.61a1.6,1.6,0,0,0,.28,1.14,1.64,1.64,0,0,0,1.09.26h1.32v1h-8.52v-1h1.68a1.88,1.88,0,0,0,1.12-.23c.18-.15.28-.54.28-1.17V160.4h-3.79a2.69,2.69,0,0,0-2,.56,3.63,3.63,0,0,0-.63,2l-.29,3.46q-.63,8.12-2,10.29a4,4,0,0,1-3.41,2.17,2.53,2.53,0,0,1-1.79-.65,2.4,2.4,0,0,1-.72-1.88,2,2,0,0,1,.51-1.47,1.71,1.71,0,0,1,1.33-.54,1.55,1.55,0,0,1,1.61,1.23,2.16,2.16,0,0,0,.28.66.55.55,0,0,0,.45.16c.82,0,1.44-1.21,1.88-3.61a41,41,0,0,0,.66-7.39,14.06,14.06,0,0,0-.37-4.26,1.7,1.7,0,0,0-1.73-.84h-1.1Z"/><path class="cls-7" d="M418.94,158.93h.87l6.92,17.65a1.66,1.66,0,0,0,1.71,1.07h.6v1h-7.7v-1H422a4,4,0,0,0,1.7-.26.59.59,0,0,0,.34-.56,1.39,1.39,0,0,0-.09-.47l-1.6-4.1h-7.63l-.89,2.35a4.43,4.43,0,0,0-.36,1.48,1.36,1.36,0,0,0,.6,1.11,2.8,2.8,0,0,0,1.72.45h.66v1h-7v-1a2.89,2.89,0,0,0,1.78-.49,4.44,4.44,0,0,0,1.2-1.86Zm-.39,3.71-3.46,8.6h6.81Z"/><path class="cls-7" d="M430.16,159.33h10.06a7,7,0,0,1,4.54,1.3,4.12,4.12,0,0,1,1.57,3.28,3.87,3.87,0,0,1-1.1,2.78,7.48,7.48,0,0,1-3.3,1.82,8.6,8.6,0,0,1,4.09,1.81,4,4,0,0,1,1.36,3.11,4.32,4.32,0,0,1-.78,2.55,5.81,5.81,0,0,1-2.58,1.88,10.41,10.41,0,0,1-4.1.77h-9.76v-1h1.59a1.9,1.9,0,0,0,1.05-.23.67.67,0,0,0,.33-.54V161.42a1,1,0,0,0-.32-.83,1.42,1.42,0,0,0-.95-.28h-1.7Zm5.77,8.86h3.65a3.63,3.63,0,0,0,2.68-1,4.41,4.41,0,0,0,1-3.24,4.28,4.28,0,0,0-.47-2.18,2.76,2.76,0,0,0-1.39-1.14,9.5,9.5,0,0,0-3.14-.36,5,5,0,0,0-2,.23.86.86,0,0,0-.37.8Zm0,1v7.44a1,1,0,0,0,.31.78,1.73,1.73,0,0,0,1.1.26h2.33a4.93,4.93,0,0,0,3.43-1,5,5,0,0,0,0-6.32,4.29,4.29,0,0,0-3.17-1.14Z"/><path class="cls-7" d="M449.19,159.33h8.89v1h-1.52a2,2,0,0,0-1.29.26,1.54,1.54,0,0,0-.26,1.07v14.61a1.7,1.7,0,0,0,.23,1.1,1.66,1.66,0,0,0,1.14.3h1.7v1h-8.89v-1h1.68a1.77,1.77,0,0,0,1.15-.26,1.73,1.73,0,0,0,.26-1.14V161.64c0-.56-.08-.9-.24-1a2.18,2.18,0,0,0-1.34-.3h-1.51Z"/><path class="cls-7" d="M460.34,159.33h10.07a6.93,6.93,0,0,1,4.53,1.3,4.09,4.09,0,0,1,1.57,3.28,3.87,3.87,0,0,1-1.1,2.78,7.42,7.42,0,0,1-3.3,1.82,8.6,8.6,0,0,1,4.09,1.81,4,4,0,0,1,1.37,3.11,4.32,4.32,0,0,1-.78,2.55,5.93,5.93,0,0,1-2.58,1.88,10.49,10.49,0,0,1-4.11.77h-9.76v-1h1.59a1.94,1.94,0,0,0,1.06-.23.67.67,0,0,0,.33-.54V161.42a1,1,0,0,0-.33-.83,1.38,1.38,0,0,0-.95-.28h-1.7Zm5.77,8.86h3.65a3.63,3.63,0,0,0,2.68-1,4.41,4.41,0,0,0,1-3.24,4.18,4.18,0,0,0-.47-2.18,2.76,2.76,0,0,0-1.39-1.14,9.46,9.46,0,0,0-3.14-.36,4.88,4.88,0,0,0-1.95.23.86.86,0,0,0-.38.8Zm0,1v7.44a1,1,0,0,0,.31.78,1.75,1.75,0,0,0,1.1.26h2.33a5,5,0,0,0,3.44-1,5,5,0,0,0,0-6.32,4.32,4.32,0,0,0-3.17-1.14Z"/><path class="cls-7" d="M479.31,165.65l4.16,5.68L479.31,177h-1.16l2.67-5.67-2.67-5.68Zm5.34,0,4.24,5.68L484.65,177h-1.18l2.66-5.67-2.66-5.68Z"/></g></g></svg>